<?xml version="1.0" standalone="no"?>
<!DOCTYPE svg PUBLIC "-//W3C//DTD SVG 20010904//EN"
 "http://www.w3.org/TR/2001/REC-SVG-20010904/DTD/svg10.dtd">
<svg version="1.0" xmlns="http://www.w3.org/2000/svg"
 width="512.000000pt" height="512.000000pt" viewBox="0 0 512.000000 512.000000"
 preserveAspectRatio="xMidYMid meet">

<g transform="translate(0.000000,512.000000) scale(0.100000,-0.100000)"
fill="#000000" stroke="none">
<path d="M3865 4958 c-30 -17 -44 -40 -45 -69 0 -20 -56 -81 -267 -290 -215
-212 -742 -716 -875 -837 l-27 -25 -68 59 c-256 221 -415 370 -427 399 -8 19
-43 56 -84 89 -39 31 -126 120 -193 198 -68 79 -171 190 -229 248 -72 72 -111
118 -119 143 -17 50 -63 87 -110 87 -28 0 -68 -18 -166 -76 -444 -260 -671
-423 -800 -574 -27 -32 -56 -59 -63 -59 -27 -2 -72 -58 -72 -91 0 -27 14 -47
82 -117 88 -90 284 -270 433 -398 110 -94 575 -468 778 -625 l148 -114 -38
-36 c-21 -21 -155 -146 -298 -280 -347 -324 -1387 -1367 -1408 -1412 -9 -20
-17 -47 -17 -61 0 -34 39 -89 76 -107 17 -8 47 -38 65 -67 121 -184 335 -376
657 -590 153 -101 264 -157 366 -183 96 -24 128 -25 214 -4 107 26 112 30 171
144 251 490 571 1012 969 1583 l166 237 30 -28 c17 -16 184 -163 371 -328 187
-164 410 -366 495 -448 354 -339 597 -512 733 -524 46 -4 57 -1 84 22 17 15
43 26 59 26 51 0 126 44 186 108 58 64 187 238 277 377 52 80 53 80 96 80 87
1 126 76 85 160 -62 127 -224 316 -428 498 -210 187 -629 538 -945 791 -182
146 -296 244 -293 252 3 7 146 192 318 411 173 219 403 511 511 650 148 188
206 256 234 270 51 25 73 66 75 142 1 55 -1 64 -27 91 -28 29 -89 55 -107 44
-4 -3 -121 51 -260 120 -138 69 -261 126 -272 126 -12 0 -30 -6 -41 -12z
m-2581 -1342 c54 -33 153 -107 220 -166 66 -58 192 -165 279 -238 87 -73 156
-132 152 -132 -4 0 -125 94 -269 208 -143 114 -313 248 -376 297 -63 48 -119
93 -125 98 -12 12 -9 10 119 -67z m-711 -2258 c-3 -13 -16 -34 -28 -48 -12
-14 -25 -33 -28 -42 -4 -10 -13 -18 -22 -18 -9 0 -29 -7 -45 -15 -50 -26 -34
0 48 74 42 39 78 71 79 71 0 0 -1 -10 -4 -22z m810 -923 c-17 -35 -31 -40 -68
-26 -17 7 -13 12 30 34 28 14 51 26 52 27 2 0 -5 -16 -14 -35z"/>
</g>
</svg>
