<?xml version="1.0" standalone="no"?>
<!DOCTYPE svg PUBLIC "-//W3C//DTD SVG 20010904//EN"
 "http://www.w3.org/TR/2001/REC-SVG-20010904/DTD/svg10.dtd">
<svg version="1.0" xmlns="http://www.w3.org/2000/svg"
 width="512.000000pt" height="512.000000pt" viewBox="0 0 512.000000 512.000000"
 preserveAspectRatio="xMidYMid meet">

<g transform="translate(0.000000,512.000000) scale(0.100000,-0.100000)"
fill="#000000" stroke="none">
<path d="M1401 5024 c-169 -45 -301 -180 -346 -351 -13 -50 -15 -323 -15
-2113 0 -2264 -4 -2108 61 -2231 62 -115 197 -214 328 -239 30 -5 105 -10 168
-10 108 0 115 1 138 25 30 29 32 74 6 106 -18 23 -27 24 -158 29 -121 5 -145
9 -194 32 -69 32 -124 85 -155 152 -38 82 -33 90 32 51 125 -75 28 -70 1294
-70 1266 0 1169 -5 1294 70 65 39 70 31 32 -51 -31 -66 -85 -120 -155 -153
l-56 -26 -858 -5 -859 -5 -19 -24 c-26 -32 -24 -77 6 -106 l24 -25 834 0 c526
0 854 4 888 10 184 35 345 196 379 379 6 34 10 629 10 1648 l0 1594 -25 24
c-29 30 -74 32 -106 6 l-24 -19 -5 -1464 -5 -1463 -27 -51 c-40 -76 -70 -107
-140 -145 l-63 -34 -1125 0 -1125 0 -63 34 c-70 38 -100 69 -140 145 l-27 51
-3 1723 -2 1722 1360 0 1360 0 0 -135 c0 -131 1 -137 25 -160 32 -33 78 -33
110 0 l25 24 0 314 c0 173 -5 338 -10 368 -34 177 -177 327 -355 374 -86 22
-2231 22 -2314 -1z m2335 -176 c76 -40 107 -70 144 -140 32 -60 34 -69 38
-185 l4 -123 -1362 0 -1362 0 4 123 c4 107 8 128 31 173 14 28 37 64 51 81 27
32 113 82 160 94 17 4 528 6 1136 6 l1105 -2 51 -27z"/>
<path d="M2025 4695 c-16 -15 -25 -36 -25 -55 0 -19 9 -40 25 -55 l24 -25 271
0 271 0 24 25 c16 15 25 36 25 55 0 19 -9 40 -25 55 l-24 25 -271 0 -271 0
-24 -25z"/>
<path d="M2825 4695 c-16 -15 -25 -36 -25 -55 0 -19 9 -40 25 -55 23 -24 31
-25 135 -25 104 0 112 1 135 25 16 15 25 36 25 55 0 19 -9 40 -25 55 -23 24
-31 25 -135 25 -104 0 -112 -1 -135 -25z"/>
<path d="M2024 3506 c-111 -26 -210 -82 -300 -171 -91 -89 -140 -169 -176
-285 -20 -65 -23 -94 -22 -215 1 -115 6 -157 27 -236 48 -183 125 -319 276
-486 92 -103 119 -121 166 -109 30 8 59 59 51 91 -3 13 -42 63 -87 111 -135
147 -199 256 -244 411 -71 242 -29 459 115 603 179 178 453 186 645 20 74 -64
100 -63 177 6 75 67 202 114 308 114 219 0 413 -161 466 -386 42 -177 -18
-437 -144 -621 -47 -69 -631 -710 -670 -735 -34 -23 -70 -23 -103 0 -14 9 -81
77 -148 150 -67 72 -131 137 -141 142 -29 15 -55 12 -84 -11 -38 -30 -35 -77
6 -126 104 -123 267 -287 302 -306 62 -32 175 -31 236 3 31 17 143 132 353
360 169 184 330 364 358 400 69 91 144 247 175 365 22 83 27 124 28 240 1 160
-16 237 -81 355 -53 95 -178 216 -274 263 -207 102 -448 84 -637 -45 -39 -27
-45 -28 -60 -15 -33 28 -132 79 -194 98 -83 26 -242 33 -324 15z"/>
<path d="M2906 3177 c-56 -56 -24 -124 64 -138 89 -14 135 -60 149 -149 14
-88 82 -120 138 -64 24 24 25 30 19 85 -6 62 -38 136 -80 186 -38 45 -134 92
-204 99 -56 6 -62 5 -86 -19z"/>
<path d="M2105 855 c-16 -15 -25 -36 -25 -55 0 -19 9 -40 25 -55 l24 -25 431
0 431 0 24 25 c16 15 25 36 25 55 0 19 -9 40 -25 55 l-24 25 -431 0 -431 0
-24 -25z"/>
</g>
</svg>
