<?xml version="1.0" standalone="no"?>
<!DOCTYPE svg PUBLIC "-//W3C//DTD SVG 20010904//EN"
 "http://www.w3.org/TR/2001/REC-SVG-20010904/DTD/svg10.dtd">
<svg version="1.0" xmlns="http://www.w3.org/2000/svg"
 width="512.000000pt" height="512.000000pt" viewBox="0 0 512.000000 512.000000"
 preserveAspectRatio="xMidYMid meet">

<g transform="translate(0.000000,512.000000) scale(0.100000,-0.100000)"
fill="#000000" stroke="none">
<path d="M2390 5105 c-172 -24 -293 -76 -379 -164 -53 -54 -56 -56 -102 -53
-184 13 -352 -102 -463 -318 -64 -125 -90 -223 -90 -350 -1 -108 12 -166 55
-252 14 -27 19 -59 19 -120 l0 -83 -47 -35 c-32 -24 -57 -54 -78 -94 -29 -58
-30 -64 -29 -190 0 -114 4 -141 27 -207 64 -187 180 -307 313 -326 42 -5 47
-9 71 -57 97 -192 229 -390 320 -478 78 -75 168 -124 300 -165 81 -25 102 -27
253 -27 151 0 172 2 253 27 130 40 217 88 296 163 92 86 225 284 324 480 24
48 29 52 71 57 133 19 249 139 313 326 23 66 27 93 27 207 1 126 0 132 -29
190 -21 39 -46 70 -77 93 l-46 34 15 61 c44 182 56 399 29 522 -33 155 -154
339 -306 467 -77 65 -263 173 -373 217 -208 83 -427 108 -667 75z m427 -161
c108 -22 237 -74 368 -147 176 -99 322 -259 389 -427 21 -51 33 -228 22 -304
-6 -40 -10 -46 -24 -40 -83 37 -235 75 -572 142 -315 63 -413 86 -485 115
-144 60 -238 121 -348 230 -77 75 -105 97 -126 97 -39 0 -65 -34 -91 -120 -59
-201 -162 -324 -345 -419 l-60 -30 -14 32 c-7 18 -17 59 -22 92 -29 184 103
464 255 542 53 28 45 27 241 20 50 -2 50 -2 75 45 14 26 37 59 50 73 30 32
128 80 195 95 136 32 349 34 492 4z m-711 -585 c29 -32 143 -113 214 -152 144
-78 231 -104 617 -181 446 -90 531 -111 561 -139 27 -25 42 -75 42 -145 0 -68
10 -86 58 -105 49 -20 89 -66 98 -114 11 -60 -3 -184 -29 -256 -50 -136 -126
-207 -222 -207 -30 0 -60 -6 -73 -16 -12 -8 -42 -55 -66 -102 -107 -212 -227
-395 -306 -464 -55 -49 -131 -89 -230 -120 -63 -19 -96 -23 -210 -23 -114 0
-147 4 -210 23 -99 31 -175 71 -230 120 -79 69 -199 252 -306 464 -24 47 -54
94 -66 102 -13 10 -43 16 -73 16 -96 0 -172 71 -222 207 -26 72 -40 196 -29
256 9 46 48 93 94 112 55 24 61 38 62 152 l0 103 73 36 c91 46 178 105 240
163 59 55 138 171 162 240 11 28 22 51 25 51 4 0 15 -9 26 -21z"/>
<path d="M1235 1936 c-662 -267 -607 -243 -698 -305 -124 -83 -239 -228 -295
-371 -55 -141 -55 -140 -59 -673 -3 -274 -2 -509 1 -523 4 -13 16 -33 28 -44
22 -20 25 -20 2348 -20 2323 0 2326 0 2348 20 12 11 24 31 28 44 3 14 4 249 1
523 -4 533 -4 532 -59 673 -73 187 -240 364 -416 442 -154 68 -1140 458 -1159
458 -34 0 -53 -11 -68 -39 -7 -15 -82 -216 -165 -446 -83 -231 -155 -423 -159
-427 -3 -4 -30 58 -58 138 l-51 146 49 118 c27 65 49 127 49 138 0 11 -9 31
-21 46 l-20 26 -299 0 -299 0 -20 -26 c-12 -15 -21 -35 -21 -46 0 -11 22 -73
49 -138 l49 -118 -51 -146 c-28 -80 -55 -142 -58 -138 -4 4 -76 196 -159 427
-83 230 -158 431 -165 446 -16 30 -34 39 -73 38 -15 0 -274 -101 -577 -223z
m725 -458 c102 -282 193 -521 203 -530 23 -24 79 -23 101 1 21 24 205 545 206
582 0 14 -13 59 -30 99 -16 40 -30 74 -30 76 0 2 68 4 150 4 83 0 150 -2 150
-4 0 -2 -13 -36 -30 -76 -16 -40 -30 -84 -30 -97 0 -35 186 -562 206 -584 22
-24 78 -25 102 -1 9 9 100 247 201 527 101 281 185 511 186 512 3 5 1034 -411
1085 -438 112 -60 221 -171 278 -284 74 -148 82 -216 82 -722 l0 -393 -2230 0
-2230 0 0 393 c0 506 8 574 82 722 53 106 151 210 258 273 33 20 1073 446
1100 451 3 1 88 -230 190 -511z"/>
<path d="M3415 1000 c-55 -17 -55 -20 -55 -335 0 -284 1 -292 21 -311 20 -18
45 -19 469 -22 l448 -3 29 25 28 24 0 291 c0 289 0 291 -23 313 l-23 23 -432
2 c-239 1 -445 -2 -462 -7z m785 -335 l0 -185 -345 0 -345 0 0 185 0 185 345
0 345 0 0 -185z"/>
</g>
</svg>
