<?xml version="1.0" standalone="no"?>
<!DOCTYPE svg PUBLIC "-//W3C//DTD SVG 20010904//EN"
 "http://www.w3.org/TR/2001/REC-SVG-20010904/DTD/svg10.dtd">
<svg version="1.0" xmlns="http://www.w3.org/2000/svg"
 width="512.000000pt" height="512.000000pt" viewBox="0 0 512.000000 512.000000"
 preserveAspectRatio="xMidYMid meet">

<g transform="translate(0.000000,512.000000) scale(0.100000,-0.100000)"
fill="#000000" stroke="none">
<path d="M2315 5109 c-800 -83 -1501 -518 -1927 -1196 -604 -961 -490 -2237
274 -3068 425 -462 951 -737 1583 -827 119 -17 512 -16 635 1 622 86 1148 360
1572 820 349 378 572 862 650 1406 17 118 17 512 0 630 -59 416 -191 769 -410
1099 -92 140 -185 254 -315 385 -399 404 -893 653 -1462 737 -123 18 -478 26
-600 13z m415 -1444 c274 -65 465 -224 541 -448 33 -96 38 -268 10 -377 -53
-209 -184 -388 -529 -718 l-175 -167 354 -5 354 -5 3 -257 2 -258 -735 0 -735
0 0 259 0 258 356 348 c465 456 534 542 534 668 0 57 -2 62 -43 102 -63 63
-126 80 -302 80 -154 0 -246 -16 -400 -66 -49 -17 -96 -33 -102 -35 -10 -5
-13 53 -13 269 l0 274 108 32 c194 56 304 71 512 67 134 -2 205 -8 260 -21z"/>
</g>
</svg>
