<?xml version="1.0" standalone="no"?>
<!DOCTYPE svg PUBLIC "-//W3C//DTD SVG 20010904//EN"
 "http://www.w3.org/TR/2001/REC-SVG-20010904/DTD/svg10.dtd">
<svg version="1.0" xmlns="http://www.w3.org/2000/svg"
 width="512.000000pt" height="512.000000pt" viewBox="0 0 512.000000 512.000000"
 preserveAspectRatio="xMidYMid meet">

<g transform="translate(0.000000,512.000000) scale(0.100000,-0.100000)"
fill="#000000" stroke="none">
<path d="M2315 5109 c-800 -83 -1501 -518 -1927 -1196 -604 -961 -490 -2237
274 -3068 425 -462 951 -737 1583 -827 119 -17 512 -16 635 1 622 86 1148 360
1572 820 349 378 572 862 650 1406 17 118 17 512 0 630 -59 416 -191 769 -410
1099 -92 140 -185 254 -315 385 -399 404 -893 653 -1462 737 -123 18 -478 26
-600 13z m843 -2076 l2 -643 155 0 155 0 0 -260 0 -260 -155 0 -155 0 -2 -212
-3 -213 -280 0 -280 0 -3 213 -2 212 -470 0 -470 0 0 258 0 257 193 375 c106
207 256 498 332 648 l139 272 420 -2 421 -3 3 -642z"/>
<path d="M2418 2762 c-93 -197 -168 -361 -168 -365 0 -4 77 -7 170 -7 l170 0
0 365 c0 201 -1 365 -2 365 -2 0 -78 -161 -170 -358z"/>
</g>
</svg>
