<?xml version="1.0" standalone="no"?>
<!DOCTYPE svg PUBLIC "-//W3C//DTD SVG 20010904//EN"
 "http://www.w3.org/TR/2001/REC-SVG-20010904/DTD/svg10.dtd">
<svg version="1.0" xmlns="http://www.w3.org/2000/svg"
 width="512.000000pt" height="512.000000pt" viewBox="0 0 512.000000 512.000000"
 preserveAspectRatio="xMidYMid meet">

<g transform="translate(0.000000,512.000000) scale(0.100000,-0.100000)"
fill="#000000" stroke="none">
<path d="M2315 5109 c-800 -83 -1501 -518 -1927 -1196 -604 -961 -490 -2237
274 -3068 425 -462 951 -737 1583 -827 119 -17 512 -16 635 1 622 86 1148 360
1572 820 349 378 572 862 650 1406 17 118 17 512 0 630 -59 416 -191 769 -410
1099 -92 140 -185 254 -315 385 -399 404 -893 653 -1462 737 -123 18 -478 26
-600 13z m895 -1682 l0 -262 -230 -189 c-126 -103 -228 -192 -225 -196 2 -4
20 -10 38 -13 109 -17 270 -109 353 -200 103 -114 154 -258 154 -437 0 -203
-58 -348 -189 -473 -241 -230 -664 -287 -1183 -160 l-108 26 0 275 c0 257 1
274 18 267 9 -4 72 -22 140 -40 283 -78 545 -87 671 -22 64 32 86 67 85 132 0
91 -68 152 -210 189 -97 25 -286 39 -436 31 l-138 -6 0 189 0 190 276 219 276
218 -341 3 -341 2 0 260 0 260 695 0 695 0 0 -263z"/>
</g>
</svg>
