<?xml version="1.0" standalone="no"?>
<!DOCTYPE svg PUBLIC "-//W3C//DTD SVG 20010904//EN"
 "http://www.w3.org/TR/2001/REC-SVG-20010904/DTD/svg10.dtd">
<svg version="1.0" xmlns="http://www.w3.org/2000/svg"
 width="512.000000pt" height="512.000000pt" viewBox="0 0 512.000000 512.000000"
 preserveAspectRatio="xMidYMid meet">

<g transform="translate(0.000000,512.000000) scale(0.100000,-0.100000)"
fill="#000000" stroke="none">
<path d="M2463 5106 c-23 -7 -62 -25 -85 -39 -24 -14 -556 -540 -1184 -1169
-1283 -1285 -1188 -1179 -1189 -1338 0 -162 -89 -62 1212 -1361 1291 -1289
1184 -1194 1343 -1194 159 0 52 -95 1343 1194 1301 1299 1212 1199 1212 1361
0 162 89 62 -1212 1361 -1034 1033 -1153 1148 -1203 1169 -68 28 -177 36 -237
16z m147 -760 c16 -3 338 -319 878 -859 921 -921 881 -877 862 -964 -8 -31
-133 -161 -863 -890 -922 -923 -877 -882 -964 -863 -31 8 -161 133 -890 863
-730 729 -855 859 -863 890 -19 87 -60 42 863 965 937 937 874 881 977 858z"/>
<path d="M1840 3275 l-715 -715 718 -718 717 -717 717 717 718 718 -715 715
c-393 393 -717 715 -720 715 -3 0 -327 -322 -720 -715z"/>
</g>
</svg>
