<?xml version="1.0" standalone="no"?>
<!DOCTYPE svg PUBLIC "-//W3C//DTD SVG 20010904//EN"
 "http://www.w3.org/TR/2001/REC-SVG-20010904/DTD/svg10.dtd">
<svg version="1.0" xmlns="http://www.w3.org/2000/svg"
 width="512.000000pt" height="512.000000pt" viewBox="0 0 512.000000 512.000000"
 preserveAspectRatio="xMidYMid meet">

<g transform="translate(0.000000,512.000000) scale(0.100000,-0.100000)"
fill="#000000" stroke="none">
<path d="M1219 4983 c-51 -32 -59 -59 -59 -207 l0 -136 213 -1 c238 0 269 -6
304 -58 l23 -34 0 -522 0 -522 -23 -34 c-30 -45 -71 -58 -189 -58 l-98 -1 0
-136 0 -136 -34 -34 c-44 -44 -84 -45 -146 -4 l-45 30 -3 -442 c-1 -242 0
-443 2 -445 2 -3 131 108 285 247 203 181 281 257 281 273 1 12 18 217 39 455
l39 434 28 41 c54 75 154 102 235 63 24 -11 107 -96 239 -244 119 -133 210
-226 219 -225 9 0 45 13 81 28 122 52 274 44 402 -21 118 -60 220 -196 249
-331 23 -115 -3 -260 -66 -354 -14 -21 -25 -43 -25 -49 0 -6 89 -111 199 -233
109 -122 206 -236 215 -254 37 -73 10 -176 -61 -230 l-37 -28 -305 2 c-168 0
-380 4 -471 8 l-165 6 -112 -100 -113 -100 403 -303 c350 -264 405 -309 425
-348 50 -100 26 -149 -154 -310 -188 -170 -199 -178 -245 -190 -79 -22 -87
-17 -537 322 -232 175 -429 321 -437 324 -9 4 -41 -18 -82 -55 -37 -33 -83
-68 -102 -77 -84 -40 -184 -26 -254 36 l-42 37 -67 -60 -68 -60 0 -367 c0
-366 0 -367 23 -401 12 -18 34 -39 47 -46 20 -10 346 -13 1528 -13 1641 0
1538 -4 1577 57 14 20 19 47 19 95 l1 68 -130 3 c-114 3 -141 7 -221 35 -287
98 -488 328 -539 617 -25 145 -17 251 31 395 64 193 220 367 407 456 112 53
214 75 345 75 l112 0 -2 545 -3 545 -130 3 c-116 2 -140 6 -225 35 -259 88
-447 286 -522 548 -28 100 -32 296 -6 388 58 210 171 371 338 480 138 90 267
128 439 128 l113 -1 -4 162 c-4 176 -9 195 -61 226 -30 19 -53 20 -408 20
l-376 0 -73 -184 c-77 -194 -107 -241 -173 -265 -19 -7 -196 -11 -513 -11
-457 0 -487 1 -522 19 -20 10 -47 30 -60 43 -12 14 -56 108 -96 209 l-74 184
-379 2 c-335 2 -381 1 -404 -14z"/>
<path d="M2170 4993 c0 -18 104 -269 118 -285 14 -17 49 -18 472 -18 354 0
460 3 468 13 5 6 26 53 45 102 19 50 44 114 56 143 l21 52 -590 0 c-325 0
-590 -3 -590 -7z"/>
<path d="M240 4025 l0 -455 284 0 283 0 214 -151 214 -151 3 131 c3 127 3 131
29 150 23 19 40 21 154 21 l129 0 0 455 0 455 -655 0 -655 0 0 -455z m1105
220 c32 -31 32 -69 0 -100 l-24 -25 -429 0 c-417 0 -429 1 -450 20 -29 27 -29
76 0 107 l21 23 429 0 429 0 24 -25z m-273 -265 c24 -25 29 -36 23 -58 -16
-63 -9 -62 -337 -62 -285 0 -299 1 -318 20 -30 30 -27 83 6 109 26 20 39 21
311 21 l285 0 30 -30z"/>
<path d="M4087 4425 c-79 -20 -200 -85 -265 -141 -154 -135 -240 -360 -213
-556 22 -157 73 -261 186 -374 63 -64 98 -90 165 -123 193 -95 393 -93 582 6
138 72 260 217 309 364 21 64 24 93 24 209 -1 120 -4 142 -27 202 -73 191
-207 325 -396 396 -85 32 -272 40 -365 17z m63 -355 c19 -5 47 -21 62 -35 l27
-25 44 31 c159 112 365 -50 292 -229 -21 -49 -302 -332 -330 -332 -24 0 -305
279 -329 327 -18 37 -21 109 -5 150 15 40 57 82 104 104 45 21 84 23 135 9z"/>
<path d="M1961 3598 c-5 -13 -26 -214 -45 -447 l-36 -423 73 -82 c63 -70 570
-639 586 -658 3 -4 203 -12 444 -18 449 -12 467 -11 467 24 0 7 -102 127 -227
267 -1118 1251 -1216 1359 -1234 1359 -11 0 -24 -10 -28 -22z"/>
<path d="M2697 3186 c-27 -7 -52 -17 -58 -23 -9 -9 404 -483 421 -483 4 0 18
24 31 53 35 79 33 193 -4 269 -73 149 -238 227 -390 184z"/>
<path d="M1397 2240 c-536 -481 -487 -433 -487 -474 0 -32 25 -63 262 -330
145 -161 273 -299 286 -305 51 -25 17 -52 737 593 110 98 201 182 203 185 3 9
-596 681 -606 680 -4 0 -182 -157 -395 -349z"/>
<path d="M4084 1750 c-225 -59 -401 -236 -460 -461 -23 -85 -22 -234 0 -319
57 -211 219 -381 431 -452 100 -33 269 -33 375 0 100 31 204 97 278 177 117
125 172 264 172 435 0 185 -55 317 -189 451 -95 95 -182 145 -301 173 -88 21
-218 19 -306 -4z m241 -431 c177 -131 185 -137 196 -166 16 -43 -8 -70 -165
-187 -211 -156 -208 -155 -257 -107 l-29 29 0 236 c0 151 4 244 11 260 12 26
42 44 74 45 11 1 88 -49 170 -110z"/>
<path d="M2050 1389 c-85 -76 -155 -142 -155 -148 0 -14 794 -611 812 -611 12
0 219 177 296 253 22 22 19 27 -59 86 l-64 49 -58 -31 c-51 -28 -66 -32 -137
-31 -98 0 -152 22 -225 90 -88 82 -121 191 -98 319 l8 40 -83 61 -83 61 -154
-138z"/>
<path d="M876 1439 c-25 -22 -46 -44 -46 -48 0 -12 251 -291 262 -291 12 0 98
72 98 82 0 7 -258 298 -264 298 -2 0 -24 -18 -50 -41z"/>
<path d="M2500 1278 c1 -59 64 -145 123 -167 33 -13 97 -14 114 -3 8 5 -27 37
-99 92 -142 109 -138 106 -138 78z"/>
</g>
</svg>
