<?xml version="1.0" standalone="no"?>
<!DOCTYPE svg PUBLIC "-//W3C//DTD SVG 20010904//EN"
 "http://www.w3.org/TR/2001/REC-SVG-20010904/DTD/svg10.dtd">
<svg version="1.0" xmlns="http://www.w3.org/2000/svg"
 width="512.000000pt" height="512.000000pt" viewBox="0 0 512.000000 512.000000"
 preserveAspectRatio="xMidYMid meet">

<g transform="translate(0.000000,512.000000) scale(0.100000,-0.100000)"
fill="#000000" stroke="none">
<path d="M1980 4565 c-300 -129 -561 -242 -579 -251 l-35 -16 598 -265 597
-266 594 264 c327 145 591 267 587 271 -4 4 -259 115 -567 248 -375 162 -575
244 -605 246 -41 4 -95 -17 -590 -231z"/>
<path d="M1280 3505 c0 -704 -1 -695 51 -741 19 -18 351 -169 1097 -500 l52
-24 -2 696 -3 695 -595 265 c-327 145 -596 264 -597 264 -2 0 -3 -295 -3 -655z"/>
<path d="M3238 3893 l-598 -265 0 -694 0 -693 43 18 c377 162 1088 489 1110
509 15 14 32 42 38 62 6 23 9 262 7 682 l-3 647 -597 -266z"/>
<path d="M320 1440 l0 -961 189 3 c207 3 216 6 265 72 21 27 21 34 21 886 0
852 0 859 -21 886 -49 66 -58 69 -265 72 l-189 3 0 -961z"/>
<path d="M960 1440 l0 -800 142 0 141 0 261 -81 c144 -44 336 -105 428 -134
377 -122 598 -134 860 -48 64 21 142 56 193 87 217 131 1655 1093 1702 1139
31 30 63 74 80 111 24 52 28 74 28 151 0 78 -4 98 -29 152 -75 164 -272 258
-438 209 -30 -8 -298 -146 -595 -306 l-541 -291 -6 -37 c-18 -108 -109 -221
-224 -275 l-67 -32 -382 -3 -383 -3 -25 25 c-33 33 -33 79 0 111 l24 25 354 0
c410 0 419 1 490 80 63 70 81 146 55 231 -15 51 -69 114 -122 142 -40 22 -49
22 -481 25 l-440 3 -150 149 c-82 82 -163 154 -178 160 -18 6 -154 10 -363 10
l-334 0 0 -800z"/>
</g>
</svg>
