<?xml version="1.0" standalone="no"?>
<!DOCTYPE svg PUBLIC "-//W3C//DTD SVG 20010904//EN"
 "http://www.w3.org/TR/2001/REC-SVG-20010904/DTD/svg10.dtd">
<svg version="1.0" xmlns="http://www.w3.org/2000/svg"
 width="512.000000pt" height="512.000000pt" viewBox="0 0 512.000000 512.000000"
 preserveAspectRatio="xMidYMid meet">

<g transform="translate(0.000000,512.000000) scale(0.100000,-0.100000)"
fill="#000000" stroke="none">
<path d="M2323 5110 c-593 -58 -1154 -323 -1573 -743 -403 -403 -648 -904
-732 -1492 -20 -140 -17 -504 6 -660 39 -278 121 -541 247 -794 249 -503 646
-900 1150 -1150 815 -406 1779 -350 2539 147 297 194 579 482 771 788 74 116
184 342 234 478 51 138 110 376 131 531 23 157 26 521 6 660 -59 415 -191 769
-410 1099 -92 140 -185 254 -315 385 -399 403 -895 653 -1462 737 -122 18
-466 26 -592 14z m478 -130 c163 -17 381 -65 539 -119 370 -126 655 -304 936
-585 286 -287 464 -574 591 -954 250 -749 115 -1577 -363 -2222 -100 -135
-349 -384 -484 -484 -799 -592 -1858 -648 -2708 -142 -172 103 -303 206 -468
371 -165 164 -268 295 -377 480 -314 529 -415 1178 -276 1780 223 968 1027
1712 2009 1859 58 9 123 17 145 19 94 8 361 6 456 -3z"/>
<path d="M2130 3248 c-233 -387 -425 -706 -427 -710 -3 -7 840 -508 857 -508
6 0 202 113 436 251 l425 251 -25 42 c-142 242 -828 1372 -834 1374 -5 1 -199
-314 -432 -700z m363 -349 c-5 -5 -118 -58 -253 -120 -308 -140 -332 -150
-327 -141 2 4 134 223 293 487 l289 480 3 -349 c1 -193 -1 -353 -5 -357z m421
228 c336 -559 305 -501 264 -482 -18 9 -150 69 -293 134 l-260 118 -3 353 c-1
213 1 350 7 345 5 -6 133 -216 285 -468z m-414 -642 c0 -146 -3 -265 -7 -265
-11 0 -503 292 -503 299 0 7 479 228 498 230 9 1 12 -58 12 -264z m383 153
c136 -62 247 -116 247 -119 0 -7 -491 -299 -503 -299 -4 0 -7 119 -7 265 0
146 3 265 8 265 4 0 118 -51 255 -112z"/>
<path d="M1717 2347 c34 -57 836 -1177 843 -1177 9 0 851 1182 846 1187 -1 2
-187 -106 -412 -238 -225 -133 -416 -244 -426 -246 -9 -3 -194 100 -433 241
-229 135 -419 246 -421 246 -3 0 -1 -6 3 -13z m691 -544 l92 -54 0 -135 c0
-74 -3 -134 -7 -133 -7 0 -323 441 -331 461 -2 5 31 -12 75 -38 43 -25 120
-71 171 -101z m401 -74 c-83 -118 -160 -223 -171 -234 -18 -20 -19 -18 -16
119 l3 138 165 98 c91 53 166 96 168 95 2 -2 -65 -99 -149 -216z"/>
</g>
</svg>
