<?xml version="1.0" standalone="no"?>
<!DOCTYPE svg PUBLIC "-//W3C//DTD SVG 20010904//EN"
 "http://www.w3.org/TR/2001/REC-SVG-20010904/DTD/svg10.dtd">
<svg version="1.0" xmlns="http://www.w3.org/2000/svg"
 width="512.000000pt" height="512.000000pt" viewBox="0 0 512.000000 512.000000"
 preserveAspectRatio="xMidYMid meet">

<g transform="translate(0.000000,512.000000) scale(0.100000,-0.100000)"
fill="#000000" stroke="none">
<path d="M2436 5105 c-109 -28 -192 -81 -306 -195 -122 -121 -198 -225 -344
-470 -121 -203 -450 -795 -474 -855 -12 -27 -17 -67 -16 -125 0 -76 10 -117
83 -370 145 -502 144 -501 202 -564 27 -30 78 -73 113 -95 64 -40 80 -59 70
-86 -14 -35 -45 -28 -131 31 -92 62 -149 126 -179 198 -11 26 -23 45 -29 44
-5 -2 -162 -81 -347 -176 -299 -154 -343 -179 -382 -223 -88 -98 -86 -91 -218
-883 -135 -813 -138 -846 -86 -959 33 -70 111 -155 176 -190 57 -31 150 -57
204 -57 37 0 38 1 31 28 -5 15 -8 52 -8 82 l0 55 145 5 145 5 5 825 c4 620 8
830 17 846 18 32 80 83 111 91 15 5 621 8 1347 8 1319 0 1320 0 1360 -21 22
-11 54 -40 70 -63 l30 -43 3 -819 2 -819 139 0 c162 0 167 -3 156 -77 -3 -27
-9 -59 -12 -72 -6 -24 -6 -24 63 -18 114 9 178 39 260 121 83 83 113 141 126
239 9 68 3 113 -111 798 -66 400 -129 749 -139 776 -25 66 -74 136 -119 170
-20 15 -185 105 -367 200 l-331 172 -30 -58 c-46 -88 -80 -126 -168 -186 -91
-61 -123 -69 -133 -31 -8 33 -2 40 71 87 67 42 133 108 159 156 8 16 65 207
126 424 109 386 111 396 108 480 l-4 86 -189 339 c-103 187 -224 400 -268 474
-257 433 -435 627 -643 701 -77 28 -208 34 -288 14z m224 -1155 c56 -11 637
-246 707 -286 56 -32 100 -88 118 -148 21 -70 19 -109 -10 -171 -13 -30 -86
-200 -160 -377 -75 -178 -147 -342 -161 -364 -40 -70 -117 -131 -194 -155 -64
-19 -88 -20 -431 -17 l-364 3 -57 28 c-113 56 -141 98 -286 437 -186 437 -211
534 -162 649 38 87 68 105 421 250 176 72 344 138 372 146 63 17 136 18 207 5z"/>
<path d="M1243 1989 c-17 -5 -41 -21 -52 -35 -21 -27 -21 -32 -21 -990 l0
-964 1395 0 1395 0 0 945 c0 1013 1 984 -50 1030 -22 20 -37 20 -1329 22 -780
1 -1319 -2 -1338 -8z m1424 -734 c47 -20 119 -90 144 -142 29 -60 30 -160 2
-224 -26 -58 -84 -116 -142 -142 -56 -25 -160 -27 -213 -4 -52 22 -123 91
-149 144 -27 55 -30 159 -6 214 18 45 77 111 122 139 63 39 166 45 242 15z"/>
<path d="M876 198 c21 -71 75 -137 136 -169 66 -34 68 -32 68 86 l0 105 -106
0 c-105 0 -105 0 -98 -22z"/>
<path d="M4030 115 c0 -116 1 -117 64 -91 67 28 126 95 147 168 l8 28 -110 0
-109 0 0 -105z"/>
</g>
</svg>
