<?xml version="1.0" standalone="no"?>
<!DOCTYPE svg PUBLIC "-//W3C//DTD SVG 20010904//EN"
 "http://www.w3.org/TR/2001/REC-SVG-20010904/DTD/svg10.dtd">
<svg version="1.0" xmlns="http://www.w3.org/2000/svg"
 width="512.000000pt" height="512.000000pt" viewBox="0 0 512.000000 512.000000"
 preserveAspectRatio="xMidYMid meet">

<g transform="translate(0.000000,512.000000) scale(0.100000,-0.100000)"
fill="#000000" stroke="none">
<path d="M2615 5109 c-125 -16 -2223 -389 -2262 -403 -75 -26 -122 -56 -188
-117 -112 -105 -174 -263 -162 -409 11 -120 576 -3303 598 -3365 74 -205 271
-345 486 -345 48 0 659 99 771 125 21 5 22 2 22 -47 1 -241 152 -451 375 -521
l70 -22 1175 0 c1307 0 1217 -4 1352 67 119 63 232 219 258 357 15 78 14 3402
-1 3473 -41 198 -215 372 -408 408 -32 6 -328 10 -747 10 l-692 0 -6 28 c-3
15 -20 105 -36 201 -17 95 -40 197 -51 225 -86 230 -310 365 -554 335z m179
-215 c86 -31 172 -121 195 -206 6 -24 24 -116 40 -205 l28 -163 -353 0 c-216
0 -374 -4 -406 -11 -123 -25 -253 -113 -324 -219 -73 -109 -94 -201 -94 -422
0 -82 -2 -148 -5 -148 -3 0 -23 12 -45 27 -50 32 -95 33 -126 1 -32 -33 -418
-586 -442 -635 -51 -98 -51 -232 -1 -339 30 -63 120 -153 183 -183 115 -53
246 -50 353 8 l52 29 6 -38 c13 -79 -41 -142 -134 -156 -61 -9 -103 -48 -103
-96 0 -47 16 -74 53 -94 26 -13 41 -14 102 -4 40 6 80 14 90 16 16 5 17 -29
17 -625 0 -347 -3 -631 -6 -631 -4 0 -172 -29 -374 -65 -202 -36 -390 -65
-418 -65 -111 0 -237 82 -282 182 -33 75 -603 3314 -596 3391 8 108 76 206
176 257 44 23 66 27 1420 265 426 75 795 141 820 145 52 9 119 3 174 -16z
m1941 -804 c63 -31 117 -85 152 -152 l28 -53 0 -1720 0 -1720 -22 -47 c-32
-70 -94 -131 -166 -164 l-62 -29 -1165 0 -1165 0 -67 33 c-76 37 -120 82 -157
162 l-26 55 0 1710 0 1710 22 47 c39 85 125 162 213 189 14 4 552 7 1195 6
l1170 -2 50 -25z"/>
<path d="M743 4295 c-17 -7 -38 -24 -46 -37 -8 -13 -44 -130 -81 -260 -65
-230 -66 -237 -52 -273 29 -68 130 -81 169 -22 8 13 29 74 47 137 18 63 35
118 39 123 4 4 39 -37 78 -90 90 -124 105 -138 153 -138 76 0 122 81 83 147
-11 18 -79 116 -153 217 -101 140 -140 186 -166 197 -39 16 -31 17 -71 -1z"/>
<path d="M2614 3836 c-23 -10 -39 -29 -57 -68 -14 -29 -64 -132 -111 -228 -96
-194 -104 -229 -61 -273 34 -33 67 -40 109 -23 31 13 43 31 99 143 l64 128 61
-120 c33 -66 69 -129 81 -139 48 -44 138 -11 155 56 9 36 11 32 -182 427 -24
49 -46 80 -67 92 -35 22 -49 23 -91 5z"/>
<path d="M3158 2750 c-206 -36 -359 -249 -320 -447 25 -125 49 -156 349 -455
256 -255 282 -278 313 -278 31 0 57 23 316 281 306 305 326 332 347 452 53
311 -274 550 -560 410 -29 -14 -62 -36 -73 -49 l-22 -22 -55 38 c-87 62 -196
87 -295 70z"/>
<path d="M4081 1064 c-54 -45 -46 -75 78 -329 67 -137 117 -228 132 -238 36
-26 84 -22 118 10 40 39 235 446 235 491 0 72 -98 118 -155 73 -13 -10 -51
-73 -84 -140 l-60 -122 -62 125 c-34 68 -73 132 -85 140 -34 24 -82 20 -117
-10z"/>
</g>
</svg>
